<?xml version="1.0" encoding="UTF-8" standalone="no"?>
<svg
   xmlns:dc="http://purl.org/dc/elements/1.1/"
   xmlns:cc="http://creativecommons.org/ns#"
   xmlns:rdf="http://www.w3.org/1999/02/22-rdf-syntax-ns#"
   xmlns:svg="http://www.w3.org/2000/svg"
   xmlns="http://www.w3.org/2000/svg"
   xmlns:sodipodi="http://sodipodi.sourceforge.net/DTD/sodipodi-0.dtd"
   xmlns:inkscape="http://www.inkscape.org/namespaces/inkscape"
   width="77.624809mm"
   height="159.74255mm"
   viewBox="0 0 77.624809 159.74255"
   version="1.1"
   id="svg48"
   inkscape:version="1.0.2 (e86c870879, 2021-01-15, custom)"
   sodipodi:docname="logo.svg">
  <defs
     id="defs42">
    <filter
       id="shadow"
       x="-0.11954474"
       y="-0.10369921"
       width="1.2186464"
       height="1.2004348">
      <feFlood
         flood-color="#fff"
         result="flood"
         id="feFlood2" />
      <feComposite
         in="flood"
         in2="SourceGraphic"
         operator="atop"
         result="composite"
         id="feComposite4" />
      <feGaussianBlur
         in="composite"
         stdDeviation="15"
         result="blur"
         id="feGaussianBlur6" />
      <feOffset
         dx="0"
         dy="0"
         result="offset"
         id="feOffset8" />
      <feComposite
         in="SourceGraphic"
         in2="offset"
         operator="over"
         id="feComposite10" />
    </filter>
  </defs>
  <sodipodi:namedview
     id="base"
     pagecolor="#ffffff"
     bordercolor="#666666"
     borderopacity="1.0"
     inkscape:pageopacity="0.0"
     inkscape:pageshadow="2"
     inkscape:zoom="0.49497475"
     inkscape:cx="143.99203"
     inkscape:cy="283.60534"
     inkscape:document-units="mm"
     inkscape:current-layer="layer1"
     inkscape:document-rotation="0"
     showgrid="false"
     fit-margin-top="0"
     fit-margin-left="0"
     fit-margin-right="0"
     fit-margin-bottom="0"
     inkscape:window-width="1920"
     inkscape:window-height="1059"
     inkscape:window-x="0"
     inkscape:window-y="842"
     inkscape:window-maximized="1" />
  <metadata
     id="metadata45">
    <rdf:RDF>
      <cc:Work
         rdf:about="">
        <dc:format>image/svg+xml</dc:format>
        <dc:type
           rdf:resource="http://purl.org/dc/dcmitype/StillImage" />
        <dc:title></dc:title>
      </cc:Work>
    </rdf:RDF>
  </metadata>
  <g
     inkscape:label="Warstwa 1"
     inkscape:groupmode="layer"
     id="layer1"
     transform="translate(-30.331353,-72.0117)">
    <g
       id="g72">
      <path
         fill="#fff"
         d="M 98.503991,4.2502544 97.558614,19.005363 C 182.16332,74.529881 182.111,138.215 186.695,210.754 c 4.912,77.703 -3.03,166.28 -22.285,252.137 -1.945,8.672 -0.072,13.881 3.268,17.76 3.34,3.878 8.874,6.427 15.068,6.76 12.39,0.663 26.028,-5.922 27.918,-27.282 C 223.95,309.954 249.55114,78.030809 98.503991,4.2502544 Z M 97.092702,34.023949 c -3.08861,6.045673 2.24003,17.105728 -0.64629,23.250549 l 47.564068,26.901568 c -5.651,-13.31 -39.68778,-39.874117 -46.917778,-50.152117 z m -2.097001,39.189459 c -3.18739,7.304332 -0.993035,14.678439 -3.933217,22.085735 L 158.998,137.328 c -2.495,-11.965 -5.403,-23.383 -8.73,-34.15 z M 86.86006,116.72682 c -3.341388,9.04773 -4.467606,16.07265 -7.48906,25.23218 3.034709,1.85797 6.079756,3.699 9.135,5.523 11.292,6.743 26.088,15.378 40.775,23.883 12.64208,7.3205 25.30178,14.61052 37.979,21.87 -0.9967,-10.6879 -2.30995,-21.34391 -3.938,-31.954 z M 73.748,159.61 c -2.696824,8.80122 -5.26211,17.6422 -7.695,26.52 l 103.998,61.506 c -0.12814,-10.91373 -0.50991,-21.82301 -1.145,-32.719 -16.24333,-9.27624 -32.45873,-18.60128 -48.646,-27.975 -14.723,-8.526 -29.558,-17.184 -40.983,-24.005 -1.846109,-1.10382 -3.689117,-2.21283 -5.529,-3.327 z m -12.471,44.61 c -1.887098,7.43987 -3.687886,14.90138 -5.402,22.383 l 113.07,73.388 c 0.55295,-10.48005 0.90868,-20.96957 1.067,-31.463 z m -9.519,41.17 c -2.065387,9.87267 -3.984264,19.77543 -5.756,29.705 l 119.533,68.92 c 0.797,-7.846 1.49,-15.66 2.08,-23.43 L 51.758,245.389 Z m -8.953,48.638 c -0.65,4.084 -1.28,8.154 -1.87,12.186 -1.77,12.106 64.935,55.99 120.141,74.619 0.81185,-5.75871 1.57188,-11.52461 2.28,-17.297 L 42.804,294.027 Z"
         filter="url(#shadow)"
         id="path17"
         style="fill:#000000"
         transform="matrix(-0.26231978,-0.03453505,-0.03453505,0.26231978,111.45186,92.292016)"
         sodipodi:nodetypes="cccscccccccccccccccccccccccccccccccccccccccccccc" />
    </g>
  </g>
</svg>
